<svg width="1076" height="236" viewBox="0 0 1076 236" fill="none" xmlns="http://www.w3.org/2000/svg">
  <!-- Original Branding but with currentColor support for text -->
  <g>
    <!-- Icon Box -->
    <rect x="0" y="0" width="236" height="236" fill="black"/>
    <path d="M0 236 L150 236 L0 86 Z" fill="white"/>
    <g stroke="black" stroke-width="8">
      <line x1="0" y1="236" x2="236" y2="0"/>
      <line x1="0" y1="206" x2="206" y2="0"/>
      <line x1="0" y1="176" x2="176" y2="0"/>
      <line x1="0" y1="146" x2="146" y2="0"/>
      <line x1="0" y1="116" x2="116" y2="0"/>
      <line x1="30" y1="236" x2="236" y2="30"/>
      <line x1="60" y1="236" x2="236" y2="60"/>
    </g>
    <path d="M0 0 H180 L236 56 V236 H180 L0 56 V0Z" fill="#E21F26"/>
    <path d="M236 236 H180 L140 196 L196 156 L236 196 V236Z" fill="#E21F26"/>

    <!-- Text that adapts to container color -->
    <text x="270" y="172" style="font:800 180px 'Arial Black', sans-serif" fill="currentColor">ПРУТКОН</text>
    <text x="275" y="230" style="font:700 42px 'Arial', sans-serif" letter-spacing="14" fill="currentColor">ПРУТКОВЫЕ КОНВЕЙЕРЫ</text>
  </g>
</svg>
